<svg width="20" height="20" viewBox="0 0 20 20" fill="none" xmlns="http://www.w3.org/2000/svg">
<mask id="mask0_139_826" style="mask-type:alpha" maskUnits="userSpaceOnUse" x="0" y="0" width="20" height="20">
<rect width="20" height="20" fill="#D9D9D9"/>
</mask>
<g mask="url(#mask0_139_826)">
<path d="M10.0001 13.3333C11.0417 13.3333 11.9273 12.9688 12.6567 12.2399C13.3856 11.5105 13.7501 10.6249 13.7501 9.58325C13.7501 8.54158 13.3856 7.65603 12.6567 6.92659C11.9273 6.1977 11.0417 5.83325 10.0001 5.83325C8.95841 5.83325 8.07286 6.1977 7.34341 6.92659C6.61453 7.65603 6.25008 8.54158 6.25008 9.58325C6.25008 10.6249 6.61453 11.5105 7.34341 12.2399C8.07286 12.9688 8.95841 13.3333 10.0001 13.3333ZM10.0001 11.8333C9.37508 11.8333 8.84397 11.6144 8.40675 11.1766C7.96897 10.7394 7.75008 10.2083 7.75008 9.58325C7.75008 8.95825 7.96897 8.42686 8.40675 7.98909C8.84397 7.55186 9.37508 7.33325 10.0001 7.33325C10.6251 7.33325 11.1565 7.55186 11.5942 7.98909C12.0315 8.42686 12.2501 8.95825 12.2501 9.58325C12.2501 10.2083 12.0315 10.7394 11.5942 11.1766C11.1565 11.6144 10.6251 11.8333 10.0001 11.8333ZM10.0001 15.8333C8.06953 15.8333 6.30564 15.323 4.70842 14.3024C3.11119 13.2813 1.90286 11.9027 1.08341 10.1666C1.04175 10.0971 1.01397 10.0102 1.00008 9.90575C0.986193 9.80186 0.979248 9.69436 0.979248 9.58325C0.979248 9.47214 0.986193 9.36436 1.00008 9.25992C1.01397 9.15603 1.04175 9.06936 1.08341 8.99992C1.90286 7.26381 3.11119 5.88547 4.70842 4.86492C6.30564 3.84381 8.06953 3.33325 10.0001 3.33325C11.9306 3.33325 13.6945 3.84381 15.2917 4.86492C16.889 5.88547 18.0973 7.26381 18.9167 8.99992C18.9584 9.06936 18.9862 9.15603 19.0001 9.25992C19.014 9.36436 19.0209 9.47214 19.0209 9.58325C19.0209 9.69436 19.014 9.80186 19.0001 9.90575C18.9862 10.0102 18.9584 10.0971 18.9167 10.1666C18.0973 11.9027 16.889 13.2813 15.2917 14.3024C13.6945 15.323 11.9306 15.8333 10.0001 15.8333Z" fill="#616161"/>
</g>
</svg>
