<?xml version="1.0" encoding="UTF-8" standalone="no"?>
<!-- Created with Inkscape (http://www.inkscape.org/) -->

<svg
   width="76.792702mm"
   height="16.92215mm"
   viewBox="0 0 76.792702 16.922149"
   version="1.1"
   id="svg1"
   xml:space="preserve"
   xmlns="http://www.w3.org/2000/svg"
   xmlns:svg="http://www.w3.org/2000/svg"><defs
     id="defs1" /><g
     id="layer1"
     transform="translate(-58.215928,-103.74379)"><path
       style="fill:#ef0606;fill-opacity:1"
       d="m 124.27848,120.39065 c -0.61647,-0.4318 -0.97192,-1.27061 -0.85316,-2.01333 0.0914,-0.5716 0.042,-0.69348 -0.41977,-1.03485 -1.09543,-0.80989 -1.13786,-1.03408 -1.23475,-6.52427 l -0.0882,-4.99705 -1.22891,-0.52399 c -0.6759,-0.28819 -1.25434,-0.54942 -1.28542,-0.5805 -0.11966,-0.11967 0.37607,-0.98347 0.55827,-0.97277 0.10569,0.006 0.86686,0.30802 1.69148,0.6707 l 1.4993,0.65942 0.0472,4.26819 0.0472,4.26818 h 4.59173 c 3.72875,0 4.68753,-0.0495 5.10144,-0.26357 0.89286,-0.46172 1.06028,-0.88585 1.06028,-2.68609 v -1.63645 h 0.62173 0.62173 l -0.0485,2.86632 -0.0485,2.86632 -5.95313,0.0464 c -5.21653,0.0407 -5.95312,0.08 -5.95312,0.31744 0,0.42249 0.48541,1.25727 0.80165,1.37863 0.15704,0.0603 2.26597,0.10957 4.6865,0.10957 4.69754,0 5.18611,0.0735 5.95214,0.89576 0.66201,0.71058 0.46288,2.15567 -0.39253,2.84858 -0.52803,0.42772 -1.77908,0.40531 -2.40887,-0.0431 -0.58055,-0.41338 -0.94346,-1.3496 -0.77828,-2.00774 l 0.11513,-0.45873 h -1.78301 -1.78301 v 0.81139 c 0,0.68757 -0.0915,0.9029 -0.59972,1.41111 -0.49937,0.49937 -0.72893,0.59972 -1.37187,0.59972 -0.42467,0 -0.949,-0.12388 -1.16517,-0.27529 z m 1.61887,-1.01223 c 0.38615,-0.28235 0.32477,-1.15329 -0.10001,-1.41917 -0.50181,-0.3141 -1.20432,0.12565 -1.20432,0.75387 0,0.76716 0.6863,1.11722 1.30433,0.6653 z m 7.47586,-0.0454 c 0.48416,-0.33911 0.50192,-0.80601 0.0464,-1.21829 -0.48209,-0.43628 -1.19975,-0.2355 -1.35393,0.3788 -0.0907,0.3613 -0.0265,0.54171 0.28144,0.79106 0.48447,0.3923 0.53199,0.39455 1.02613,0.0484 z m -72.094571,-3.10679 c -1.719844,-0.49366 -3.069757,-2.26405 -3.062683,-4.01665 0.0071,-1.76909 0.833163,-3.06547 2.436089,-3.82325 0.802315,-0.3793 1.11685,-0.4171 3.48368,-0.41867 l 2.601736,-0.002 v 0.97014 0.97014 l -1.89618,0.004 c -2.362997,0.005 -3.259497,0.33313 -3.683994,1.3491 -0.45921,1.09904 -0.1044,2.18417 0.903895,2.76441 0.195114,0.11228 1.307252,0.24383 2.471418,0.29234 l 2.116667,0.0882 0.0529,1.01424 0.0529,1.01424 -2.434149,-0.0159 c -1.338783,-0.009 -2.707808,-0.0945 -3.042278,-0.19047 z m 6.340767,-4.02696 v -4.23333 h 1.316049 1.316049 l 0.05096,1.5434 0.05097,1.54341 1.455208,0.0512 1.455208,0.0512 v -1.59464 -1.59463 h 1.411111 1.411111 v 4.23333 4.23334 H 74.674961 73.26385 v -1.5875 -1.5875 h -1.499305 -1.499306 v 1.5875 1.5875 h -1.322917 -1.322916 z m 9.348611,0 v -4.23333 h 3.095565 c 3.387386,0 3.725353,0.078 4.541183,1.04752 0.966159,1.14821 1.057491,2.69725 0.227785,3.86337 l -0.454024,0.63811 0.528079,0.41329 c 0.480637,0.37615 0.528079,0.50721 0.528079,1.45883 v 1.04555 h -1.380711 -1.38071 l -1.393709,-1.04378 c -0.766539,-0.57408 -1.454907,-1.00596 -1.529706,-0.95973 -0.0748,0.0462 -0.135998,0.51593 -0.135998,1.04378 v 0.95973 h -1.322916 -1.322917 z m 5.252419,-0.27458 c 0.560126,-0.39233 0.52062,-1.18616 -0.08265,-1.66069 -0.379094,-0.29819 -0.672108,-0.36293 -1.455208,-0.32148 l -0.980536,0.0519 -0.05251,1.10243 -0.05251,1.10243 h 1.115697 c 0.724313,0 1.253218,-0.0963 1.507722,-0.27458 z m 7.089402,4.24559 c -1.693256,-0.54019 -2.99617,-2.33022 -2.991487,-4.10991 0.0039,-1.47258 1.463646,-3.44113 2.90433,-3.9166 1.763704,-0.58208 3.936389,0.22045 4.924728,1.81905 2.012755,3.25556 -1.19366,7.36995 -4.837571,6.20746 z m 2.296509,-2.11792 c 0.766258,-0.39624 1.060281,-0.93631 1.060281,-1.94753 0,-0.74974 -0.08003,-0.97424 -0.48507,-1.36064 -0.707206,-0.67467 -1.359941,-0.87722 -2.145345,-0.66573 -0.871888,0.23477 -1.433962,0.86762 -1.551961,1.74737 -0.246284,1.83618 1.486833,3.07216 3.122095,2.22653 z m 4.176485,2.26265 c -0.06468,-0.0647 -0.117593,-1.96967 -0.117593,-4.23333 v -4.11574 l 1.455208,0.003 1.455209,0.003 1.322916,2.02201 c 0.727608,1.11211 1.382448,2.02347 1.455208,2.02524 0.0728,0.002 0.13229,-0.90958 0.13229,-2.02524 v -2.02847 h 1.32292 1.32292 v 4.24075 4.24076 l -1.36702,-0.0515 -1.36701,-0.0515 -1.32292,-1.97848 c -0.727603,-1.08817 -1.382447,-1.98114 -1.455207,-1.98438 -0.07276,-0.003 -0.132292,0.90693 -0.132292,2.02258 v 2.02848 h -1.293518 c -0.711435,0 -1.346435,-0.0529 -1.411111,-0.1176 z m 9.226668,-0.80844 c -0.004,-0.78145 0.22355,-1.44204 1.45521,-4.2307 l 1.45956,-3.30465 1.43414,-0.003 1.43415,-0.003 1.43217,3.24745 c 1.2338,2.79765 1.43218,3.38401 1.43218,4.23334 v 0.98588 h -4.32153 -4.32153 z m 5.02219,-1.5875 c -0.29824,-0.97653 -0.62624,-1.59485 -0.76511,-1.44235 -0.0819,0.0899 -0.27369,0.54056 -0.42622,1.00137 l -0.27732,0.83785 h 0.79493 c 0.7427,0 0.78697,-0.0261 0.67372,-0.39687 z m 16.85382,-4.10161 -0.95864,-0.97071 0.37863,-0.37864 0.37864,-0.37863 0.55547,0.4674 c 0.30551,0.25706 0.67532,0.46739 0.82179,0.46739 0.14648,0 0.76271,-0.47666 1.36941,-1.05924 1.08712,-1.04391 1.10768,-1.05419 1.41908,-0.7101 0.3081,0.34045 0.27975,0.38883 -1.13745,1.94119 -0.79939,0.87563 -1.54677,1.59204 -1.66085,1.59204 -0.11409,0 -0.63882,-0.43681 -1.16608,-0.9707 z"
       id="path1" /></g></svg>
